<svg height="512" viewBox="0 0 192 192" width="512" xmlns="http://www.w3.org/2000/svg" xmlns:xlink="http://www.w3.org/1999/xlink"><linearGradient id="New_Gradient_Swatch_1" gradientUnits="userSpaceOnUse" x1="52" x2="140" y1="132" y2="44"><stop offset="0" stop-color="#34cdfa"/><stop offset="1" stop-color="#e8d9f1"/></linearGradient><g id="_18-online_banking" data-name="18-online banking"><g id="Flat"><path d="m168 48h-16a8.009 8.009 0 0 0 -8-8v-16a24.028 24.028 0 0 1 24 24z" fill="#67d9fb"/><path d="m192 48h-16a32.036 32.036 0 0 0 -32-32v-16a48.053 48.053 0 0 1 48 48z" fill="#99e6fd"/><path d="m16 88h160v88h-160z" fill="#99e6fd"/><path d="m48 88h96v88h-96z" fill="#01c0f9"/><g fill="#ccf2fe"><path d="m104 88h16v88h-16z"/><path d="m72 88h16v88h-16z"/><path d="m40 88h16v88h-16z"/><path d="m136 88h16v88h-16z"/></g><path d="m184 88-88-56-88 56z" fill="url(#New_Gradient_Swatch_1)"/><path d="m184 96h-176a8 8 0 0 1 -4.295-14.749l88-56a8 8 0 0 1 8.59 0l88 56a8 8 0 0 1 -4.295 14.749zm-148.527-16h121.054l-60.527-38.518z" fill="#e6f9fe"/><rect fill="#34cdfa" height="24" rx="8" width="192" y="168"/><circle cx="96" cy="64" fill="#fff" r="8"/></g></g></svg>